<svg width="24" height="24" viewBox="0 0 24 24" fill="none" xmlns="http://www.w3.org/2000/svg">
<rect x="0.25" y="0.25" width="23.5" height="23.5" rx="11.75" stroke="#243B74" stroke-width="0.5"/>
<path d="M17.9208 11.8218H17.8203C17.4076 9.97698 15.7602 8.59158 13.7933 8.59158H12.5371V8.13217C13.1616 7.90965 13.6139 7.31745 13.6139 6.61757C13.6139 5.72747 12.8889 5.00247 11.9988 5.00247C11.1087 5.00247 10.3837 5.72747 10.3837 6.61757C10.3837 7.31745 10.8359 7.90965 11.4604 8.13217V8.59158H10.2042C8.23738 8.59158 6.58998 9.97698 6.17723 11.8218H6.07673C5.48453 11.8218 5 12.3063 5 12.8985V13.9752C5 14.5674 5.48453 15.052 6.07673 15.052H6.27413C6.69765 16.3728 7.7672 17.3993 9.10953 17.7725C9.00904 17.9843 8.94802 18.214 8.94802 18.4616C8.94802 18.7595 9.18849 19 9.48639 19H14.5111C14.809 19 15.0495 18.7595 15.0495 18.4616C15.0495 18.214 14.9885 17.9807 14.888 17.7725C16.2303 17.4028 17.2999 16.3728 17.7234 15.052H17.9208C18.513 15.052 18.9975 14.5674 18.9975 13.9752V12.8985C18.9975 12.3063 18.513 11.8218 17.9208 11.8218ZM11.9988 6.0792C12.2967 6.0792 12.5371 6.31967 12.5371 6.61757C12.5371 6.91546 12.2967 7.15594 11.9988 7.15594C11.7009 7.15594 11.4604 6.91546 11.4604 6.61757C11.4604 6.31967 11.7009 6.0792 11.9988 6.0792ZM13.7933 16.8465H10.2042C8.52092 16.8465 7.15347 15.4791 7.15347 13.7958V12.7191C7.15347 11.0358 8.52092 9.66831 10.2042 9.66831H13.7933C15.4766 9.66831 16.8441 11.0358 16.8441 12.7191V13.7958C16.8441 15.4791 15.4766 16.8465 13.7933 16.8465Z" fill="#055F7B"/>
<path d="M10.0248 11.104C9.43255 11.104 8.94802 11.5885 8.94802 12.1807V13.2574C8.94802 13.8496 9.43255 14.3342 10.0248 14.3342C10.617 14.3342 11.1015 13.8496 11.1015 13.2574V12.1807C11.1015 11.5885 10.617 11.104 10.0248 11.104Z" fill="#065F7B"/>
<path d="M13.9728 11.104C13.3806 11.104 12.896 11.5885 12.896 12.1807V13.2574C12.896 13.8496 13.3806 14.3342 13.9728 14.3342C14.565 14.3342 15.0495 13.8496 15.0495 13.2574V12.1807C15.0495 11.5885 14.565 11.104 13.9728 11.104Z" fill="#065F7B"/>
<path d="M8.24097 6.05049L9.3177 6.4094C9.37513 6.42735 9.43255 6.43811 9.48639 6.43811C9.7125 6.43811 9.92067 6.29455 9.99604 6.06844C10.0894 5.7849 9.93862 5.47982 9.65508 5.3865L8.57834 5.02759C8.29839 4.93428 7.99332 5.08502 7.89641 5.36856C7.79951 5.6521 7.95384 5.95717 8.23738 6.05049H8.24097Z" fill="#065F7B"/>
<path d="M8.40965 8.23267C8.46708 8.23267 8.52451 8.22549 8.57834 8.20396L9.65508 7.84504C9.93862 7.75173 10.0894 7.44665 9.99604 7.16311C9.90272 6.87957 9.59765 6.72883 9.31411 6.82215L8.23738 7.18106C7.95384 7.27438 7.8031 7.57945 7.89641 7.86299C7.97178 8.0891 8.17995 8.23267 8.40607 8.23267H8.40965Z" fill="#065F7B"/>
<path d="M14.5111 6.43811C14.5686 6.43811 14.626 6.43094 14.6798 6.4094L15.7566 6.05049C16.0401 5.95717 16.1908 5.6521 16.0975 5.36856C16.0042 5.08502 15.6991 4.93428 15.4156 5.02759L14.3389 5.3865C14.0553 5.47982 13.9046 5.7849 13.9979 6.06844C14.0733 6.29455 14.2814 6.43811 14.5076 6.43811H14.5111Z" fill="#065F7B"/>
<path d="M14.3425 7.84504L15.4192 8.20396C15.4766 8.2219 15.534 8.23267 15.5879 8.23267C15.814 8.23267 16.0222 8.0891 16.0975 7.86299C16.1908 7.57945 16.0401 7.27438 15.7566 7.18106L14.6798 6.82215C14.3999 6.72883 14.0912 6.87957 13.9979 7.16311C13.9046 7.44665 14.0553 7.75173 14.3389 7.84504H14.3425Z" fill="#065F7B"/>
</svg>
